<?xml version="1.0" standalone="no"?>
<!DOCTYPE svg PUBLIC "-//W3C//DTD SVG 20010904//EN"
 "http://www.w3.org/TR/2001/REC-SVG-20010904/DTD/svg10.dtd">
<svg version="1.0" xmlns="http://www.w3.org/2000/svg"
 width="317.000000pt" height="452.000000pt" viewBox="0 0 317.000000 452.000000"
 preserveAspectRatio="xMidYMid meet">

<g transform="translate(0.000000,452.000000) scale(0.100000,-0.100000)"
fill="#000000" stroke="none">
<path d="M1063 4414 c-87 -19 -189 -64 -275 -122 -90 -60 -151 -92 -248 -126
-203 -73 -364 -212 -459 -395 -51 -98 -70 -166 -78 -271 -16 -225 94 -456 274
-576 102 -68 313 -134 430 -134 23 0 44 -3 46 -7 3 -5 15 -152 27 -328 l21
-320 92 -86 91 -87 25 19 c29 23 84 25 105 3 26 -25 49 -122 43 -179 -3 -28
-20 -80 -38 -116 -23 -48 -30 -73 -25 -93 8 -31 69 -102 110 -127 27 -16 30
-16 83 7 85 38 217 73 317 85 110 13 192 1 248 -36 21 -14 44 -22 53 -19 9 4
42 -8 74 -25 32 -17 63 -31 68 -31 5 0 14 15 20 33 6 17 20 56 31 84 l21 52
-46 28 c-25 14 -64 30 -87 33 -23 4 -77 17 -121 29 -179 48 -329 47 -513 -5
-104 -30 -123 -25 -106 23 11 31 28 37 164 58 175 27 370 13 542 -39 l48 -15
10 38 c5 21 9 62 9 92 -1 30 2 74 6 99 l7 45 76 -7 c139 -12 130 -15 198 56
60 63 61 65 67 133 4 37 9 183 13 323 4 140 11 263 16 273 5 10 20 17 37 17
57 0 186 41 273 87 157 83 288 248 332 419 21 80 21 250 1 329 -33 129 -121
269 -217 348 -25 20 -104 73 -176 117 -72 44 -170 109 -217 145 -138 105 -243
150 -385 165 -113 12 -238 -2 -358 -42 l-95 -31 -91 32 c-166 58 -315 73 -443
45z m313 -244 c43 -11 116 -39 161 -61 l83 -41 67 35 c166 85 347 89 481 11
26 -15 72 -52 103 -81 41 -38 64 -53 84 -53 16 0 70 -20 121 -45 206 -101 323
-280 312 -475 -6 -100 -39 -171 -110 -235 -62 -56 -104 -78 -185 -99 -94 -25
-158 -20 -282 19 -139 43 -187 49 -283 36 -79 -11 -208 -49 -208 -61 0 -3 23
-12 51 -18 118 -28 293 -128 383 -220 l49 -50 -13 -251 c-7 -137 -16 -255 -20
-261 -5 -9 -39 -2 -116 23 -172 56 -252 69 -414 70 -205 0 -338 -23 -538 -94
-46 -16 -87 -29 -91 -29 -11 0 -30 186 -37 376 l-7 170 44 36 c158 129 350
223 598 295 11 3 12 6 2 16 -9 9 -63 12 -189 11 -193 0 -275 -13 -386 -60
-161 -68 -189 -76 -296 -81 -209 -11 -372 59 -460 197 -143 226 -15 531 289
689 71 36 167 71 198 71 18 0 9 -51 -23 -139 -13 -35 -24 -70 -24 -77 0 -29
21 -12 46 39 63 124 182 255 276 303 110 56 209 66 334 34z m399 -1921 c115
-17 355 -95 370 -120 5 -8 -80 -77 -120 -96 -14 -8 -42 -5 -95 7 -194 47 -439
51 -629 10 -52 -11 -105 -20 -118 -20 -22 0 -172 79 -173 91 -1 18 153 77 299
114 133 34 298 38 466 14z"/>
<path d="M582 1376 c-149 -160 -212 -307 -212 -499 0 -102 29 -258 54 -292 7
-10 31 -19 58 -22 39 -5 49 -2 78 24 l32 29 -17 103 c-15 89 -16 116 -6 189
21 147 93 276 227 407 l64 62 -66 12 c-37 6 -84 21 -105 32 -21 10 -40 19 -42
19 -3 0 -32 -29 -65 -64z"/>
<path d="M2420 1414 c-30 -13 -81 -29 -112 -35 l-57 -11 37 -25 c57 -38 151
-133 188 -190 18 -28 45 -87 60 -130 24 -73 26 -86 20 -198 -3 -66 -9 -141
-12 -166 -5 -42 -3 -48 26 -72 38 -32 82 -35 109 -8 25 25 59 135 72 231 27
207 -54 415 -223 576 l-53 51 -55 -23z"/>
</g>
</svg>
